<?xml version="1.0" standalone="no"?>
<!DOCTYPE svg PUBLIC "-//W3C//DTD SVG 20010904//EN"
 "http://www.w3.org/TR/2001/REC-SVG-20010904/DTD/svg10.dtd">
<svg version="1.0" xmlns="http://www.w3.org/2000/svg"
 width="44.000000pt" height="44.000000pt" viewBox="0 0 44.000000 44.000000"
 preserveAspectRatio="xMidYMid meet">

<g transform="translate(0.000000,44.000000) scale(0.100000,-0.100000)"
fill="#000000" stroke="none">
<path d="M255 421 c-16 -10 -78 -68 -137 -127 -84 -86 -108 -117 -113 -146
-15 -82 61 -158 143 -143 30 5 61 30 160 128 67 66 122 125 122 129 0 24 -36
-4 -145 -112 -110 -109 -125 -120 -158 -120 -51 0 -87 34 -94 88 l-6 43 125
125 c133 133 157 145 198 104 41 -41 28 -64 -97 -186 -65 -62 -123 -113 -130
-114 -7 0 -17 10 -24 21 -10 20 -2 31 86 119 65 65 93 100 85 105 -8 5 -46
-27 -106 -86 -87 -87 -95 -97 -92 -129 3 -38 37 -64 69 -52 30 12 249 233 255
258 9 35 -14 82 -47 99 -37 20 -58 19 -94 -4z"/>
</g>
</svg>
